<svg width="10" height="10" viewBox="0 0 10 10" fill="none" xmlns="http://www.w3.org/2000/svg">
<path fill-rule="evenodd" clip-rule="evenodd" d="M0.720073 0.72003C0.860693 0.57958 1.05132 0.50069 1.25007 0.50069C1.44882 0.50069 1.63944 0.57958 1.78007 0.72003L5.00007 3.94003L8.22007 0.72003C8.28877 0.64634 8.37157 0.58724 8.46357 0.54625C8.55557 0.50526 8.65487 0.48322 8.75557 0.48144C8.85627 0.47966 8.95627 0.49819 9.04967 0.53591C9.14307 0.57363 9.22787 0.62977 9.29907 0.70099C9.37037 0.77221 9.42647 0.85705 9.46417 0.95043C9.50187 1.04382 9.52047 1.14385 9.51867 1.24455C9.51687 1.34526 9.49487 1.44457 9.45387 1.53657C9.41287 1.62857 9.35377 1.71137 9.28007 1.78003L6.06007 5.00003L9.28007 8.22003C9.35377 8.28873 9.41287 8.37153 9.45387 8.46353C9.49487 8.55553 9.51687 8.65483 9.51867 8.75553C9.52047 8.85623 9.50187 8.95623 9.46417 9.04963C9.42647 9.14303 9.37037 9.22783 9.29907 9.29903C9.22787 9.37033 9.14307 9.42643 9.04967 9.46413C8.95627 9.50183 8.85627 9.52043 8.75557 9.51863C8.65487 9.51683 8.55557 9.49483 8.46357 9.45383C8.37157 9.41283 8.28877 9.35373 8.22007 9.28003L5.00007 6.06003L1.78007 9.28003C1.63789 9.41253 1.44984 9.48463 1.25554 9.48123C1.06124 9.47773 0.875862 9.39903 0.738442 9.26163C0.601032 9.12423 0.522323 8.93883 0.518893 8.74453C0.515463 8.55023 0.587593 8.36223 0.720073 8.22003L3.94007 5.00003L0.720073 1.78003C0.579623 1.63941 0.500732 1.44878 0.500732 1.25003C0.500732 1.05128 0.579623 0.86066 0.720073 0.72003Z" fill="#57606A"/>
</svg>
